<svg xmlns="http://www.w3.org/2000/svg" xmlns:xlink="http://www.w3.org/1999/xlink" width="100" zoomAndPan="magnify" viewBox="0 0 75 74.999997" height="100" preserveAspectRatio="xMidYMid meet" version="1.0"><defs><g/></defs><g fill="#000000" fill-opacity="1"><g transform="translate(19.384394, 54.842538)"><g><path d="M 34.828125 -31.1875 C 34.972656 -29.5 34.6875 -28.09375 33.96875 -26.96875 C 33.257812 -25.84375 32.269531 -24.898438 31 -24.140625 C 29.726562 -23.390625 28.328125 -22.726562 26.796875 -22.15625 C 25.273438 -21.59375 23.738281 -21.015625 22.1875 -20.421875 C 20.644531 -19.835938 19.238281 -19.140625 17.96875 -18.328125 C 16.695312 -17.515625 15.710938 -16.484375 15.015625 -15.234375 L 15.1875 -2.546875 L 18.984375 -0.890625 L 18.984375 0.0625 C 18.984375 0.0625 18.597656 0.0507812 17.828125 0.03125 C 17.054688 0.0078125 16.015625 0 14.703125 0 C 13.398438 0 11.957031 0 10.375 0 C 7.988281 0 5.945312 0.0078125 4.25 0.03125 C 2.5625 0.0507812 1.71875 0.0625 1.71875 0.0625 L 1.71875 -0.890625 L 5.734375 -2.546875 L 5.734375 -34.28125 C 5.734375 -34.976562 5.75 -35.710938 5.78125 -36.484375 C 5.820312 -37.265625 5.84375 -37.65625 5.84375 -37.65625 L 1.71875 -39.359375 L 1.71875 -40.1875 C 1.71875 -40.1875 2.101562 -40.1875 2.875 -40.1875 C 3.644531 -40.1875 4.65625 -40.1875 5.90625 -40.1875 C 7.15625 -40.1875 8.539062 -40.1875 10.0625 -40.1875 C 11.59375 -40.1875 13.125 -40.1875 14.65625 -40.1875 C 16.1875 -40.1875 17.578125 -40.1875 18.828125 -40.1875 C 20.921875 -40.144531 22.882812 -40.039062 24.71875 -39.875 C 26.5625 -39.71875 28.203125 -39.363281 29.640625 -38.8125 C 31.078125 -38.257812 32.242188 -37.375 33.140625 -36.15625 C 34.046875 -34.945312 34.609375 -33.289062 34.828125 -31.1875 Z M 15.015625 -34.28125 L 15.015625 -17.171875 C 15.972656 -18.347656 16.929688 -19.3125 17.890625 -20.0625 C 18.847656 -20.820312 19.765625 -21.492188 20.640625 -22.078125 C 21.523438 -22.671875 22.332031 -23.296875 23.0625 -23.953125 C 23.800781 -24.617188 24.398438 -25.4375 24.859375 -26.40625 C 25.328125 -27.382812 25.613281 -28.664062 25.71875 -30.25 C 25.875 -32.050781 25.5625 -33.648438 24.78125 -35.046875 C 24.007812 -36.453125 23.046875 -37.53125 21.890625 -38.28125 C 20.734375 -39.039062 19.601562 -39.378906 18.5 -39.296875 C 17.539062 -39.265625 16.71875 -38.832031 16.03125 -38 C 15.351562 -37.175781 15.015625 -35.9375 15.015625 -34.28125 Z M 15.015625 -34.28125 "/></g></g></g><g fill="#000000" fill-opacity="1"><g transform="translate(43.165494, 64.224733)"><g><path d="M 17.0625 -11.296875 C 18.050781 -10.460938 18.753906 -9.507812 19.171875 -8.4375 C 19.585938 -7.363281 19.707031 -6.296875 19.53125 -5.234375 C 19.363281 -4.171875 18.875 -3.21875 18.0625 -2.375 C 17.539062 -1.863281 16.828125 -1.425781 15.921875 -1.0625 C 15.023438 -0.695312 14.007812 -0.421875 12.875 -0.234375 C 11.738281 -0.0546875 10.566406 0.0234375 9.359375 0.015625 C 8.160156 0.00390625 7.003906 -0.101562 5.890625 -0.3125 C 4.773438 -0.53125 3.78125 -0.851562 2.90625 -1.28125 C 2.039062 -1.71875 1.382812 -2.265625 0.9375 -2.921875 C 0.613281 -3.421875 0.5 -3.957031 0.59375 -4.53125 C 0.6875 -5.113281 0.894531 -5.703125 1.21875 -6.296875 C 1.539062 -6.898438 1.890625 -7.488281 2.265625 -8.0625 C 2.640625 -8.632812 2.945312 -9.144531 3.1875 -9.59375 C 3.289062 -9.59375 3.382812 -9.59375 3.46875 -9.59375 C 3.5625 -9.59375 3.628906 -9.59375 3.671875 -9.59375 C 3.898438 -7.382812 4.304688 -5.613281 4.890625 -4.28125 C 5.472656 -2.945312 6.140625 -1.988281 6.890625 -1.40625 C 7.640625 -0.832031 8.367188 -0.546875 9.078125 -0.546875 C 9.703125 -0.546875 10.320312 -0.726562 10.9375 -1.09375 C 11.5625 -1.457031 12.070312 -1.953125 12.46875 -2.578125 C 12.863281 -3.203125 13.050781 -3.898438 13.03125 -4.671875 C 13.007812 -5.441406 12.675781 -6.234375 12.03125 -7.046875 C 11.800781 -7.347656 11.414062 -7.65625 10.875 -7.96875 C 10.34375 -8.28125 9.773438 -8.585938 9.171875 -8.890625 C 8.566406 -9.203125 8.019531 -9.519531 7.53125 -9.84375 C 6.78125 -10.363281 6.015625 -10.851562 5.234375 -11.3125 C 4.453125 -11.769531 3.722656 -12.253906 3.046875 -12.765625 C 2.367188 -13.285156 1.820312 -13.867188 1.40625 -14.515625 C 1 -15.160156 0.796875 -15.921875 0.796875 -16.796875 C 0.796875 -17.890625 1.148438 -18.851562 1.859375 -19.6875 C 2.566406 -20.53125 3.503906 -21.234375 4.671875 -21.796875 C 5.847656 -22.367188 7.125 -22.785156 8.5 -23.046875 C 9.875 -23.304688 11.238281 -23.378906 12.59375 -23.265625 C 13.957031 -23.160156 15.195312 -22.859375 16.3125 -22.359375 C 17.4375 -21.867188 18.296875 -21.15625 18.890625 -20.21875 C 19.210938 -19.738281 19.328125 -19.207031 19.234375 -18.625 C 19.140625 -18.050781 18.929688 -17.457031 18.609375 -16.84375 C 18.285156 -16.238281 17.941406 -15.648438 17.578125 -15.078125 C 17.210938 -14.515625 16.910156 -14.003906 16.671875 -13.546875 C 16.609375 -13.546875 16.523438 -13.546875 16.421875 -13.546875 C 16.328125 -13.546875 16.25 -13.546875 16.1875 -13.546875 C 15.882812 -16.484375 15.191406 -18.734375 14.109375 -20.296875 C 13.023438 -21.867188 11.820312 -22.6875 10.5 -22.75 C 9.976562 -22.769531 9.410156 -22.597656 8.796875 -22.234375 C 8.191406 -21.867188 7.664062 -21.390625 7.21875 -20.796875 C 6.78125 -20.210938 6.5625 -19.597656 6.5625 -18.953125 C 6.5625 -18.316406 6.785156 -17.75 7.234375 -17.25 C 7.691406 -16.757812 8.300781 -16.300781 9.0625 -15.875 C 9.820312 -15.457031 10.660156 -15.03125 11.578125 -14.59375 C 12.503906 -14.15625 13.4375 -13.671875 14.375 -13.140625 C 15.320312 -12.617188 16.21875 -12.003906 17.0625 -11.296875 Z M 17.0625 -11.296875 "/></g></g></g></svg>