<svg xmlns="http://www.w3.org/2000/svg" xmlns:xlink="http://www.w3.org/1999/xlink" width="397" zoomAndPan="magnify" viewBox="0 0 297.75 349.499994" height="466" preserveAspectRatio="xMidYMid meet" version="1.0"><defs><g/><clipPath id="f789dce726"><path d="M 0.0859375 0 L 297.414062 0 L 297.414062 259.824219 L 0.0859375 259.824219 Z M 0.0859375 0 " clip-rule="nonzero"/></clipPath><clipPath id="0354c1462e"><path d="M 148.558594 0 L 297.027344 259.824219 L 0.0859375 259.824219 Z M 148.558594 0 " clip-rule="nonzero"/></clipPath><clipPath id="e4d5004ffe"><path d="M 0.0859375 259.824219 L 297.179688 259.824219 L 297.179688 348.464844 L 0.0859375 348.464844 Z M 0.0859375 259.824219 " clip-rule="nonzero"/></clipPath><clipPath id="fa80e5f155"><path d="M 148.558594 348.464844 L 297.027344 259.824219 L 0.0859375 259.824219 Z M 148.558594 348.464844 " clip-rule="nonzero"/></clipPath><clipPath id="cbc6de8f7a"><path d="M 0.0859375 191.726562 L 297 191.726562 L 297 259.953125 L 0.0859375 259.953125 Z M 0.0859375 191.726562 " clip-rule="nonzero"/></clipPath><clipPath id="43b65cfb8e"><path d="M 148.558594 191.726562 L 297.027344 259.953125 L 0.0859375 259.953125 Z M 148.558594 191.726562 " clip-rule="nonzero"/></clipPath></defs><g clip-path="url(#f789dce726)"><g clip-path="url(#0354c1462e)"><path fill="#cdcdcd" d="M 0.0859375 0 L 297.464844 0 L 297.464844 259.824219 L 0.0859375 259.824219 Z M 0.0859375 0 " fill-opacity="1" fill-rule="nonzero"/></g></g><g clip-path="url(#e4d5004ffe)"><g clip-path="url(#fa80e5f155)"><path fill="#737373" d="M 0.0859375 259.824219 L 297.179688 259.824219 L 297.179688 348.464844 L 0.0859375 348.464844 Z M 0.0859375 259.824219 " fill-opacity="1" fill-rule="nonzero"/></g></g><g clip-path="url(#cbc6de8f7a)"><g clip-path="url(#43b65cfb8e)"><path fill="#737373" d="M 0.0859375 191.726562 L 296.984375 191.726562 L 296.984375 259.953125 L 0.0859375 259.953125 Z M 0.0859375 191.726562 " fill-opacity="1" fill-rule="nonzero"/></g></g><g fill="#ffffff" fill-opacity="1"><g transform="translate(89.037044, 172.912897)"><g><path d="M 32.515625 -29.109375 C 32.648438 -27.535156 32.382812 -26.222656 31.71875 -25.171875 C 31.050781 -24.117188 30.125 -23.238281 28.9375 -22.53125 C 27.75 -21.832031 26.441406 -21.21875 25.015625 -20.6875 C 23.585938 -20.15625 22.148438 -19.613281 20.703125 -19.0625 C 19.265625 -18.507812 17.953125 -17.851562 16.765625 -17.09375 C 15.585938 -16.34375 14.671875 -15.382812 14.015625 -14.21875 L 14.171875 -2.375 L 17.734375 -0.828125 L 17.734375 0.046875 C 17.734375 0.046875 17.367188 0.0351562 16.640625 0.015625 C 15.921875 0.00390625 14.953125 0 13.734375 0 C 12.515625 0 11.164062 0 9.6875 0 C 7.457031 0 5.550781 0.00390625 3.96875 0.015625 C 2.382812 0.0351562 1.59375 0.046875 1.59375 0.046875 L 1.59375 -0.828125 L 5.359375 -2.375 L 5.359375 -32 C 5.359375 -32.65625 5.375 -33.34375 5.40625 -34.0625 C 5.445312 -34.78125 5.46875 -35.140625 5.46875 -35.140625 L 1.59375 -36.734375 L 1.59375 -37.515625 C 1.59375 -37.515625 1.953125 -37.515625 2.671875 -37.515625 C 3.398438 -37.515625 4.347656 -37.515625 5.515625 -37.515625 C 6.679688 -37.515625 7.976562 -37.515625 9.40625 -37.515625 C 10.832031 -37.515625 12.253906 -37.515625 13.671875 -37.515625 C 15.097656 -37.515625 16.398438 -37.515625 17.578125 -37.515625 C 19.535156 -37.484375 21.367188 -37.390625 23.078125 -37.234375 C 24.796875 -37.078125 26.328125 -36.738281 27.671875 -36.21875 C 29.015625 -35.707031 30.101562 -34.882812 30.9375 -33.75 C 31.78125 -32.613281 32.304688 -31.066406 32.515625 -29.109375 Z M 14.015625 -32 L 14.015625 -16.03125 C 14.910156 -17.125 15.800781 -18.019531 16.6875 -18.71875 C 17.582031 -19.425781 18.441406 -20.054688 19.265625 -20.609375 C 20.097656 -21.160156 20.859375 -21.742188 21.546875 -22.359375 C 22.234375 -22.984375 22.789062 -23.75 23.21875 -24.65625 C 23.644531 -25.5625 23.910156 -26.753906 24.015625 -28.234375 C 24.148438 -29.921875 23.859375 -31.414062 23.140625 -32.71875 C 22.421875 -34.03125 21.519531 -35.035156 20.4375 -35.734375 C 19.351562 -36.441406 18.296875 -36.757812 17.265625 -36.6875 C 16.367188 -36.65625 15.601562 -36.25 14.96875 -35.46875 C 14.332031 -34.695312 14.015625 -33.539062 14.015625 -32 Z M 14.015625 -32 "/></g></g></g><g fill="#ffffff" fill-opacity="1"><g transform="translate(122.836753, 172.912897)"><g><path d="M 26.390625 -20.609375 C 26.390625 -20.472656 26.34375 -20.300781 26.25 -20.09375 C 26.164062 -19.882812 26.039062 -19.75 25.875 -19.6875 C 25.59375 -19.613281 25.015625 -19.34375 24.140625 -18.875 C 23.265625 -18.414062 22.207031 -17.851562 20.96875 -17.1875 C 19.738281 -16.519531 18.476562 -15.84375 17.1875 -15.15625 C 15.894531 -14.46875 14.679688 -13.863281 13.546875 -13.34375 C 12.421875 -12.832031 11.53125 -12.488281 10.875 -12.3125 C 11.25 -10.113281 11.992188 -8.484375 13.109375 -7.421875 C 14.234375 -6.359375 15.5 -5.773438 16.90625 -5.671875 C 18.3125 -5.566406 19.679688 -5.835938 21.015625 -6.484375 C 22.359375 -7.140625 23.460938 -8.070312 24.328125 -9.28125 L 24.9375 -9.015625 C 24.21875 -6.578125 23.132812 -4.644531 21.6875 -3.21875 C 20.25 -1.789062 18.628906 -0.835938 16.828125 -0.359375 C 15.023438 0.117188 13.210938 0.160156 11.390625 -0.234375 C 9.566406 -0.628906 7.875 -1.441406 6.3125 -2.671875 C 4.75 -3.910156 3.484375 -5.535156 2.515625 -7.546875 C 1.554688 -9.554688 1.078125 -11.921875 1.078125 -14.640625 C 1.078125 -17.484375 1.523438 -19.898438 2.421875 -21.890625 C 3.316406 -23.890625 4.46875 -25.472656 5.875 -26.640625 C 7.351562 -27.910156 8.984375 -28.785156 10.765625 -29.265625 C 12.554688 -29.742188 14.332031 -29.890625 16.09375 -29.703125 C 17.863281 -29.515625 19.503906 -29.023438 21.015625 -28.234375 C 22.535156 -27.441406 23.773438 -26.398438 24.734375 -25.109375 C 25.691406 -23.828125 26.242188 -22.328125 26.390625 -20.609375 Z M 20.296875 -25.71875 C 20.503906 -26.4375 20.421875 -27.035156 20.046875 -27.515625 C 19.671875 -27.992188 19.117188 -28.3125 18.390625 -28.46875 C 17.671875 -28.625 16.90625 -28.585938 16.09375 -28.359375 C 15.289062 -28.140625 14.582031 -27.6875 13.96875 -27 C 13.070312 -26.007812 12.285156 -24.550781 11.609375 -22.625 C 10.941406 -20.695312 10.609375 -18.289062 10.609375 -15.40625 C 10.609375 -15.09375 10.617188 -14.78125 10.640625 -14.46875 C 10.660156 -14.164062 10.6875 -13.878906 10.71875 -13.609375 C 13.976562 -16.867188 16.3125 -19.453125 17.71875 -21.359375 C 19.132812 -23.265625 19.992188 -24.71875 20.296875 -25.71875 Z M 20.296875 -25.71875 "/></g></g></g><g fill="#ffffff" fill-opacity="1"><g transform="translate(150.453583, 172.912897)"><g><path d="M 25.296875 -0.765625 L 25.296875 0 C 25.296875 0 24.503906 -0.00390625 22.921875 -0.015625 C 21.347656 -0.0351562 19.445312 -0.046875 17.21875 -0.046875 C 16.21875 -0.046875 15.253906 -0.0351562 14.328125 -0.015625 C 13.398438 -0.00390625 12.9375 0 12.9375 0 L 12.9375 -2.890625 C 11.90625 -1.515625 10.691406 -0.566406 9.296875 -0.046875 C 7.910156 0.460938 6.554688 0.570312 5.234375 0.28125 C 3.910156 -0.0078125 2.8125 -0.703125 1.9375 -1.796875 C 1.0625 -2.898438 0.625 -4.378906 0.625 -6.234375 C 0.625 -7.921875 0.972656 -9.269531 1.671875 -10.28125 C 2.378906 -11.289062 3.273438 -12.101562 4.359375 -12.71875 C 5.441406 -13.34375 6.554688 -13.859375 7.703125 -14.265625 C 8.859375 -14.679688 9.914062 -15.101562 10.875 -15.53125 C 11.832031 -15.96875 12.535156 -16.53125 12.984375 -17.21875 C 13.015625 -19.820312 13.015625 -21.816406 12.984375 -23.203125 C 12.953125 -24.597656 12.890625 -25.613281 12.796875 -26.25 C 12.710938 -26.882812 12.570312 -27.375 12.375 -27.71875 C 12.164062 -28.101562 11.757812 -28.351562 11.15625 -28.46875 C 10.550781 -28.59375 9.929688 -28.515625 9.296875 -28.234375 C 8.660156 -27.960938 8.171875 -27.429688 7.828125 -26.640625 C 7.484375 -25.847656 7.441406 -24.75 7.703125 -23.34375 C 7.960938 -21.9375 8.675781 -20.132812 9.84375 -17.9375 C 9.632812 -17.726562 9.425781 -17.554688 9.21875 -17.421875 C 8.289062 -17.554688 7.285156 -17.742188 6.203125 -17.984375 C 5.128906 -18.222656 4.132812 -18.472656 3.21875 -18.734375 C 2.3125 -18.992188 1.617188 -19.191406 1.140625 -19.328125 C 0.960938 -19.390625 0.832031 -19.523438 0.75 -19.734375 C 0.664062 -19.941406 0.625 -20.113281 0.625 -20.25 C 0.757812 -22.144531 1.296875 -23.707031 2.234375 -24.9375 C 3.179688 -26.175781 4.347656 -27.140625 5.734375 -27.828125 C 7.128906 -28.515625 8.625 -28.941406 10.21875 -29.109375 C 11.820312 -29.285156 13.363281 -29.234375 14.84375 -28.953125 C 16.320312 -28.679688 17.609375 -28.203125 18.703125 -27.515625 C 19.804688 -26.828125 20.546875 -25.988281 20.921875 -25 C 21.296875 -24.132812 21.523438 -23.066406 21.609375 -21.796875 C 21.703125 -20.523438 21.75 -19.03125 21.75 -17.3125 C 21.75 -16.832031 21.75 -16.023438 21.75 -14.890625 C 21.75 -13.753906 21.75 -12.484375 21.75 -11.078125 C 21.75 -9.671875 21.738281 -8.304688 21.71875 -6.984375 C 21.695312 -5.660156 21.6875 -4.566406 21.6875 -3.703125 C 21.6875 -2.847656 21.6875 -2.421875 21.6875 -2.421875 Z M 8.609375 -7.9375 C 8.609375 -6.351562 8.863281 -5.207031 9.375 -4.5 C 9.894531 -3.800781 10.5 -3.40625 11.1875 -3.3125 C 11.875 -3.226562 12.457031 -3.34375 12.9375 -3.65625 C 12.9375 -3.65625 12.9375 -4.023438 12.9375 -4.765625 C 12.9375 -5.503906 12.941406 -6.429688 12.953125 -7.546875 C 12.972656 -8.660156 12.984375 -9.816406 12.984375 -11.015625 C 12.984375 -12.222656 12.984375 -13.316406 12.984375 -14.296875 C 12.984375 -15.273438 12.984375 -15.972656 12.984375 -16.390625 C 12.429688 -15.628906 11.8125 -14.90625 11.125 -14.21875 C 10.4375 -13.53125 9.84375 -12.707031 9.34375 -11.75 C 8.851562 -10.789062 8.609375 -9.519531 8.609375 -7.9375 Z M 8.609375 -7.9375 "/></g></g></g><g fill="#ffffff" fill-opacity="1"><g transform="translate(176.215555, 172.912897)"><g><path d="M 24.84375 -25 C 24.394531 -24.582031 23.851562 -24.003906 23.21875 -23.265625 C 22.582031 -22.523438 21.988281 -21.8125 21.4375 -21.125 C 20.882812 -20.4375 20.488281 -19.957031 20.25 -19.6875 C 20.320312 -19.582031 20.53125 -19.210938 20.875 -18.578125 C 21.21875 -17.941406 21.644531 -17.148438 22.15625 -16.203125 C 22.675781 -15.265625 23.21875 -14.28125 23.78125 -13.25 C 24.34375 -12.21875 24.875 -11.242188 25.375 -10.328125 C 25.875 -9.421875 26.273438 -8.679688 26.578125 -8.109375 C 26.890625 -7.546875 27.046875 -7.265625 27.046875 -7.265625 C 27.972656 -5.617188 28.675781 -4.335938 29.15625 -3.421875 C 29.644531 -2.515625 30.023438 -1.867188 30.296875 -1.484375 C 30.578125 -1.109375 30.835938 -0.851562 31.078125 -0.71875 L 31.078125 0.046875 C 30.972656 0.046875 30.53125 0.0351562 29.75 0.015625 C 28.976562 0.00390625 28.050781 0 26.96875 0 C 25.894531 0 24.804688 0 23.703125 0 C 22.609375 0 21.671875 0.00390625 20.890625 0.015625 C 20.117188 0.0351562 19.664062 0.046875 19.53125 0.046875 L 19.53125 -0.671875 C 19.84375 -0.671875 20.09375 -0.769531 20.28125 -0.96875 C 20.46875 -1.175781 20.613281 -1.351562 20.71875 -1.5 C 20.882812 -1.738281 20.796875 -2.25 20.453125 -3.03125 C 20.109375 -3.820312 19.515625 -5.023438 18.671875 -6.640625 C 17.835938 -8.253906 16.71875 -10.40625 15.3125 -13.09375 C 15.0625 -13.570312 14.765625 -13.894531 14.421875 -14.0625 C 14.328125 -14.132812 14.03125 -14.175781 13.53125 -14.1875 C 13.03125 -14.207031 12.59375 -14.238281 12.21875 -14.28125 C 12.21875 -12.070312 12.21875 -10.066406 12.21875 -8.265625 C 12.21875 -6.460938 12.21875 -5.03125 12.21875 -3.96875 C 12.21875 -2.90625 12.21875 -2.375 12.21875 -2.375 L 14.640625 -0.71875 L 14.640625 0.046875 C 14.640625 0.046875 14.050781 0.0351562 12.875 0.015625 C 11.707031 0.00390625 10.007812 0 7.78125 0 C 5.550781 0 3.820312 0.00390625 2.59375 0.015625 C 1.375 0.0351562 0.765625 0.046875 0.765625 0.046875 L 0.765625 -0.71875 L 3.453125 -2.375 L 3.453125 -37.828125 L 1.078125 -39.421875 L 1.078125 -40.140625 C 2.179688 -40.171875 3.410156 -40.1875 4.765625 -40.1875 C 6.117188 -40.1875 8.015625 -40.1875 10.453125 -40.1875 C 11.003906 -40.15625 11.441406 -39.992188 11.765625 -39.703125 C 12.097656 -39.410156 12.25 -38.972656 12.21875 -38.390625 C 12.21875 -38.222656 12.21875 -37.625 12.21875 -36.59375 C 12.21875 -35.5625 12.21875 -34.238281 12.21875 -32.625 C 12.21875 -31.007812 12.21875 -29.210938 12.21875 -27.234375 C 12.21875 -25.253906 12.21875 -23.207031 12.21875 -21.09375 C 12.21875 -18.988281 12.21875 -16.921875 12.21875 -14.890625 C 13.101562 -14.828125 13.8125 -14.90625 14.34375 -15.125 C 14.882812 -15.34375 15.421875 -15.769531 15.953125 -16.40625 C 16.484375 -17.039062 17.210938 -17.894531 18.140625 -18.96875 C 20.609375 -21.914062 21.75 -24.25 21.5625 -25.96875 C 21.375 -27.6875 19.851562 -28.582031 17 -28.65625 L 17 -29.375 L 31.125 -29.375 L 31.125 -28.65625 C 29.882812 -28.3125 28.757812 -27.820312 27.75 -27.1875 C 26.738281 -26.550781 25.769531 -25.820312 24.84375 -25 Z M 24.84375 -25 "/></g></g></g><g fill="#ffffff" fill-opacity="1"><g transform="translate(177.678691, 198.382585)"><g><path d="M 14.140625 -9.359375 C 14.953125 -8.671875 15.53125 -7.878906 15.875 -6.984375 C 16.226562 -6.097656 16.332031 -5.210938 16.1875 -4.328125 C 16.039062 -3.453125 15.632812 -2.664062 14.96875 -1.96875 C 14.539062 -1.539062 13.953125 -1.175781 13.203125 -0.875 C 12.453125 -0.570312 11.601562 -0.34375 10.65625 -0.1875 C 9.71875 -0.0390625 8.75 0.0234375 7.75 0.015625 C 6.757812 0.00390625 5.800781 -0.0859375 4.875 -0.265625 C 3.957031 -0.441406 3.132812 -0.707031 2.40625 -1.0625 C 1.6875 -1.414062 1.144531 -1.867188 0.78125 -2.421875 C 0.507812 -2.835938 0.410156 -3.285156 0.484375 -3.765625 C 0.566406 -4.242188 0.738281 -4.726562 1 -5.21875 C 1.269531 -5.71875 1.5625 -6.203125 1.875 -6.671875 C 2.1875 -7.148438 2.441406 -7.578125 2.640625 -7.953125 C 2.734375 -7.953125 2.8125 -7.953125 2.875 -7.953125 C 2.945312 -7.953125 3.003906 -7.953125 3.046875 -7.953125 C 3.234375 -6.117188 3.566406 -4.648438 4.046875 -3.546875 C 4.535156 -2.441406 5.085938 -1.648438 5.703125 -1.171875 C 6.328125 -0.691406 6.929688 -0.453125 7.515625 -0.453125 C 8.035156 -0.453125 8.550781 -0.601562 9.0625 -0.90625 C 9.582031 -1.207031 10.003906 -1.613281 10.328125 -2.125 C 10.660156 -2.644531 10.816406 -3.222656 10.796875 -3.859375 C 10.785156 -4.503906 10.507812 -5.164062 9.96875 -5.84375 C 9.78125 -6.09375 9.460938 -6.34375 9.015625 -6.59375 C 8.566406 -6.851562 8.09375 -7.113281 7.59375 -7.375 C 7.101562 -7.632812 6.648438 -7.894531 6.234375 -8.15625 C 5.617188 -8.582031 4.984375 -8.988281 4.328125 -9.375 C 3.679688 -9.757812 3.078125 -10.164062 2.515625 -10.59375 C 1.960938 -11.019531 1.515625 -11.5 1.171875 -12.03125 C 0.835938 -12.5625 0.671875 -13.191406 0.671875 -13.921875 C 0.671875 -14.828125 0.960938 -15.625 1.546875 -16.3125 C 2.128906 -17.007812 2.90625 -17.59375 3.875 -18.0625 C 4.84375 -18.539062 5.894531 -18.882812 7.03125 -19.09375 C 8.175781 -19.3125 9.3125 -19.375 10.4375 -19.28125 C 11.570312 -19.195312 12.597656 -18.945312 13.515625 -18.53125 C 14.441406 -18.125 15.15625 -17.53125 15.65625 -16.75 C 15.925781 -16.351562 16.019531 -15.914062 15.9375 -15.4375 C 15.851562 -14.957031 15.675781 -14.460938 15.40625 -13.953125 C 15.144531 -13.453125 14.863281 -12.960938 14.5625 -12.484375 C 14.257812 -12.015625 14.007812 -11.597656 13.8125 -11.234375 C 13.757812 -11.234375 13.691406 -11.234375 13.609375 -11.234375 C 13.535156 -11.234375 13.472656 -11.234375 13.421875 -11.234375 C 13.171875 -13.671875 12.59375 -15.535156 11.6875 -16.828125 C 10.789062 -18.128906 9.789062 -18.804688 8.6875 -18.859375 C 8.269531 -18.878906 7.804688 -18.738281 7.296875 -18.4375 C 6.785156 -18.132812 6.347656 -17.738281 5.984375 -17.25 C 5.617188 -16.757812 5.4375 -16.242188 5.4375 -15.703125 C 5.4375 -15.171875 5.625 -14.703125 6 -14.296875 C 6.375 -13.890625 6.875 -13.507812 7.5 -13.15625 C 8.132812 -12.8125 8.832031 -12.457031 9.59375 -12.09375 C 10.363281 -11.726562 11.140625 -11.328125 11.921875 -10.890625 C 12.703125 -10.453125 13.441406 -9.941406 14.140625 -9.359375 Z M 14.140625 -9.359375 "/></g></g></g><g fill="#ffffff" fill-opacity="1"><g transform="translate(194.188972, 198.382585)"><g><path d="M 11.25 -14.984375 C 12.09375 -14.984375 12.882812 -14.753906 13.625 -14.296875 C 14.375 -13.835938 14.984375 -13.09375 15.453125 -12.0625 C 15.921875 -11.03125 16.15625 -9.648438 16.15625 -7.921875 C 16.15625 -6.921875 16.066406 -5.921875 15.890625 -4.921875 C 15.710938 -3.929688 15.382812 -3.023438 14.90625 -2.203125 C 14.425781 -1.390625 13.742188 -0.757812 12.859375 -0.3125 C 11.828125 0.175781 10.742188 0.421875 9.609375 0.421875 C 9.210938 0.421875 8.765625 0.378906 8.265625 0.296875 C 7.765625 0.222656 7.335938 0.0859375 6.984375 -0.109375 C 6.984375 1.015625 6.984375 1.960938 6.984375 2.734375 C 6.984375 3.503906 6.984375 3.890625 6.984375 3.890625 L 8.234375 4.75 L 8.234375 5.125 L 1.046875 5.125 L 1.046875 4.75 L 2.453125 3.890625 L 2.40625 -13.96875 L 1.171875 -14.796875 L 1.171875 -15.171875 C 1.171875 -15.171875 1.367188 -15.175781 1.765625 -15.1875 C 2.171875 -15.195312 2.644531 -15.203125 3.1875 -15.203125 C 3.726562 -15.203125 4.210938 -15.203125 4.640625 -15.203125 L 6.046875 -15.203125 C 6.316406 -15.203125 6.535156 -15.125 6.703125 -14.96875 C 6.878906 -14.820312 6.957031 -14.597656 6.9375 -14.296875 L 6.96875 -12.90625 C 7.425781 -13.613281 8.035156 -14.132812 8.796875 -14.46875 C 9.566406 -14.8125 10.382812 -14.984375 11.25 -14.984375 Z M 9.65625 -1.171875 C 10.039062 -1.628906 10.316406 -2.222656 10.484375 -2.953125 C 10.660156 -3.679688 10.773438 -4.4375 10.828125 -5.21875 C 10.878906 -6.007812 10.90625 -6.695312 10.90625 -7.28125 C 10.90625 -7.988281 10.875 -8.71875 10.8125 -9.46875 C 10.75 -10.21875 10.644531 -10.90625 10.5 -11.53125 C 10.363281 -12.164062 10.171875 -12.671875 9.921875 -13.046875 C 9.671875 -13.429688 9.351562 -13.632812 8.96875 -13.65625 C 8.59375 -13.675781 8.132812 -13.445312 7.59375 -12.96875 C 7.28125 -12.664062 7.070312 -12.304688 6.96875 -11.890625 C 6.96875 -11.078125 6.96875 -10.1875 6.96875 -9.21875 C 6.96875 -8.25 6.96875 -7.273438 6.96875 -6.296875 C 6.976562 -5.316406 6.984375 -4.410156 6.984375 -3.578125 C 6.984375 -2.753906 6.984375 -2.078125 6.984375 -1.546875 C 6.984375 -1.015625 6.984375 -0.710938 6.984375 -0.640625 C 7.148438 -0.546875 7.382812 -0.476562 7.6875 -0.4375 C 8 -0.394531 8.332031 -0.425781 8.6875 -0.53125 C 9.050781 -0.632812 9.375 -0.847656 9.65625 -1.171875 Z M 9.65625 -1.171875 "/></g></g></g><g fill="#ffffff" fill-opacity="1"><g transform="translate(210.992648, 198.382585)"><g><path d="M 13.09375 -0.40625 L 13.09375 0 C 13.09375 0 12.679688 -0.00390625 11.859375 -0.015625 C 11.046875 -0.0234375 10.0625 -0.03125 8.90625 -0.03125 C 8.394531 -0.03125 7.894531 -0.0234375 7.40625 -0.015625 C 6.925781 -0.00390625 6.6875 0 6.6875 0 L 6.6875 -1.5 C 6.15625 -0.78125 5.53125 -0.285156 4.8125 -0.015625 C 4.09375 0.242188 3.390625 0.296875 2.703125 0.140625 C 2.023438 -0.00390625 1.457031 -0.359375 1 -0.921875 C 0.539062 -1.492188 0.3125 -2.265625 0.3125 -3.234375 C 0.3125 -4.097656 0.492188 -4.789062 0.859375 -5.3125 C 1.222656 -5.84375 1.6875 -6.265625 2.25 -6.578125 C 2.8125 -6.898438 3.390625 -7.164062 3.984375 -7.375 C 4.578125 -7.59375 5.125 -7.8125 5.625 -8.03125 C 6.125 -8.257812 6.488281 -8.550781 6.71875 -8.90625 C 6.738281 -10.257812 6.738281 -11.296875 6.71875 -12.015625 C 6.695312 -12.734375 6.664062 -13.253906 6.625 -13.578125 C 6.582031 -13.910156 6.507812 -14.164062 6.40625 -14.34375 C 6.289062 -14.539062 6.078125 -14.671875 5.765625 -14.734375 C 5.460938 -14.796875 5.144531 -14.753906 4.8125 -14.609375 C 4.488281 -14.472656 4.234375 -14.195312 4.046875 -13.78125 C 3.867188 -13.375 3.847656 -12.804688 3.984375 -12.078125 C 4.117188 -11.347656 4.488281 -10.414062 5.09375 -9.28125 C 4.988281 -9.175781 4.882812 -9.085938 4.78125 -9.015625 C 4.289062 -9.085938 3.765625 -9.1875 3.203125 -9.3125 C 2.648438 -9.4375 2.132812 -9.5625 1.65625 -9.6875 C 1.1875 -9.820312 0.832031 -9.925781 0.59375 -10 C 0.5 -10.039062 0.425781 -10.113281 0.375 -10.21875 C 0.332031 -10.320312 0.3125 -10.410156 0.3125 -10.484375 C 0.382812 -11.460938 0.664062 -12.269531 1.15625 -12.90625 C 1.644531 -13.550781 2.25 -14.050781 2.96875 -14.40625 C 3.6875 -14.757812 4.457031 -14.976562 5.28125 -15.0625 C 6.113281 -15.15625 6.910156 -15.128906 7.671875 -14.984375 C 8.441406 -14.847656 9.109375 -14.597656 9.671875 -14.234375 C 10.242188 -13.878906 10.628906 -13.445312 10.828125 -12.9375 C 11.023438 -12.488281 11.144531 -11.9375 11.1875 -11.28125 C 11.226562 -10.625 11.25 -9.851562 11.25 -8.96875 C 11.25 -8.71875 11.25 -8.296875 11.25 -7.703125 C 11.25 -7.117188 11.25 -6.460938 11.25 -5.734375 C 11.25 -5.003906 11.242188 -4.296875 11.234375 -3.609375 C 11.234375 -2.929688 11.234375 -2.367188 11.234375 -1.921875 C 11.234375 -1.472656 11.234375 -1.25 11.234375 -1.25 Z M 4.453125 -4.109375 C 4.453125 -3.285156 4.582031 -2.691406 4.84375 -2.328125 C 5.113281 -1.960938 5.425781 -1.757812 5.78125 -1.71875 C 6.144531 -1.675781 6.445312 -1.734375 6.6875 -1.890625 C 6.6875 -1.890625 6.6875 -2.082031 6.6875 -2.46875 C 6.6875 -2.851562 6.691406 -3.332031 6.703125 -3.90625 C 6.710938 -4.488281 6.71875 -5.085938 6.71875 -5.703125 C 6.71875 -6.328125 6.71875 -6.890625 6.71875 -7.390625 C 6.71875 -7.898438 6.71875 -8.265625 6.71875 -8.484375 C 6.4375 -8.085938 6.117188 -7.710938 5.765625 -7.359375 C 5.410156 -7.003906 5.101562 -6.578125 4.84375 -6.078125 C 4.582031 -5.578125 4.453125 -4.921875 4.453125 -4.109375 Z M 4.453125 -4.109375 "/></g></g></g><g fill="#ffffff" fill-opacity="1"><g transform="translate(224.328902, 198.382585)"><g><path d="M 13.6875 -10.671875 C 13.6875 -10.597656 13.660156 -10.503906 13.609375 -10.390625 C 13.566406 -10.285156 13.503906 -10.21875 13.421875 -10.1875 C 13.179688 -10.113281 12.820312 -10.015625 12.34375 -9.890625 C 11.863281 -9.765625 11.34375 -9.632812 10.78125 -9.5 C 10.226562 -9.375 9.710938 -9.273438 9.234375 -9.203125 C 9.117188 -9.273438 9.007812 -9.363281 8.90625 -9.46875 C 9.5625 -10.675781 9.9375 -11.679688 10.03125 -12.484375 C 10.132812 -13.296875 10.050781 -13.898438 9.78125 -14.296875 C 9.519531 -14.691406 9.15625 -14.863281 8.6875 -14.8125 C 8.226562 -14.769531 7.753906 -14.492188 7.265625 -13.984375 C 6.773438 -13.484375 6.359375 -12.734375 6.015625 -11.734375 C 5.679688 -10.734375 5.515625 -9.476562 5.515625 -7.96875 C 5.515625 -6.726562 5.691406 -5.726562 6.046875 -4.96875 C 6.410156 -4.21875 6.875 -3.679688 7.4375 -3.359375 C 8.007812 -3.035156 8.617188 -2.890625 9.265625 -2.921875 C 9.910156 -2.960938 10.53125 -3.144531 11.125 -3.46875 C 11.726562 -3.800781 12.222656 -4.242188 12.609375 -4.796875 L 12.9375 -4.671875 C 12.5625 -3.410156 12 -2.410156 11.25 -1.671875 C 10.507812 -0.929688 9.671875 -0.4375 8.734375 -0.1875 C 7.796875 0.0625 6.851562 0.0859375 5.90625 -0.109375 C 4.96875 -0.316406 4.09375 -0.738281 3.28125 -1.375 C 2.476562 -2.019531 1.828125 -2.863281 1.328125 -3.90625 C 0.835938 -4.945312 0.59375 -6.171875 0.59375 -7.578125 C 0.59375 -9.066406 0.816406 -10.320312 1.265625 -11.34375 C 1.722656 -12.363281 2.328125 -13.1875 3.078125 -13.8125 C 3.835938 -14.4375 4.675781 -14.867188 5.59375 -15.109375 C 6.507812 -15.347656 7.421875 -15.414062 8.328125 -15.3125 C 9.242188 -15.21875 10.09375 -14.96875 10.875 -14.5625 C 11.664062 -14.164062 12.3125 -13.640625 12.8125 -12.984375 C 13.320312 -12.328125 13.613281 -11.554688 13.6875 -10.671875 Z M 13.6875 -10.671875 "/></g></g></g><g fill="#ffffff" fill-opacity="1"><g transform="translate(238.598694, 198.382585)"><g><path d="M 13.65625 -10.671875 C 13.65625 -10.597656 13.628906 -10.503906 13.578125 -10.390625 C 13.535156 -10.285156 13.472656 -10.21875 13.390625 -10.1875 C 13.242188 -10.15625 12.941406 -10.019531 12.484375 -9.78125 C 12.035156 -9.539062 11.488281 -9.242188 10.84375 -8.890625 C 10.207031 -8.546875 9.554688 -8.195312 8.890625 -7.84375 C 8.222656 -7.488281 7.597656 -7.175781 7.015625 -6.90625 C 6.429688 -6.644531 5.96875 -6.46875 5.625 -6.375 C 5.820312 -5.238281 6.207031 -4.394531 6.78125 -3.84375 C 7.363281 -3.289062 8.019531 -2.988281 8.75 -2.9375 C 9.476562 -2.882812 10.1875 -3.023438 10.875 -3.359375 C 11.570312 -3.703125 12.144531 -4.179688 12.59375 -4.796875 L 12.90625 -4.671875 C 12.53125 -3.410156 11.96875 -2.410156 11.21875 -1.671875 C 10.476562 -0.929688 9.640625 -0.4375 8.703125 -0.1875 C 7.773438 0.0625 6.835938 0.0859375 5.890625 -0.109375 C 4.953125 -0.316406 4.078125 -0.738281 3.265625 -1.375 C 2.453125 -2.019531 1.796875 -2.863281 1.296875 -3.90625 C 0.804688 -4.945312 0.5625 -6.171875 0.5625 -7.578125 C 0.5625 -9.046875 0.789062 -10.296875 1.25 -11.328125 C 1.71875 -12.359375 2.316406 -13.179688 3.046875 -13.796875 C 3.804688 -14.453125 4.648438 -14.898438 5.578125 -15.140625 C 6.503906 -15.390625 7.421875 -15.46875 8.328125 -15.375 C 9.242188 -15.28125 10.09375 -15.023438 10.875 -14.609375 C 11.664062 -14.203125 12.304688 -13.664062 12.796875 -13 C 13.296875 -12.332031 13.582031 -11.554688 13.65625 -10.671875 Z M 10.515625 -13.3125 C 10.617188 -13.6875 10.570312 -13.992188 10.375 -14.234375 C 10.175781 -14.484375 9.890625 -14.648438 9.515625 -14.734375 C 9.148438 -14.816406 8.753906 -14.800781 8.328125 -14.6875 C 7.910156 -14.570312 7.546875 -14.332031 7.234375 -13.96875 C 6.765625 -13.457031 6.359375 -12.703125 6.015625 -11.703125 C 5.671875 -10.710938 5.5 -9.46875 5.5 -7.96875 C 5.5 -7.8125 5.5 -7.648438 5.5 -7.484375 C 5.507812 -7.328125 5.523438 -7.179688 5.546875 -7.046875 C 7.234375 -8.734375 8.441406 -10.066406 9.171875 -11.046875 C 9.898438 -12.035156 10.347656 -12.789062 10.515625 -13.3125 Z M 10.515625 -13.3125 "/></g></g></g></svg>