<svg xmlns="http://www.w3.org/2000/svg" xmlns:xlink="http://www.w3.org/1999/xlink" width="100" zoomAndPan="magnify" viewBox="0 0 75 74.999997" height="100" preserveAspectRatio="xMidYMid meet" version="1.0"><defs><g/></defs><g fill="#000000" fill-opacity="1"><g transform="translate(19.384394, 54.842538)"><g><path d="M 34.828125 -31.1875 C 34.972656 -29.5 34.6875 -28.09375 33.96875 -26.96875 C 33.257812 -25.84375 32.269531 -24.898438 31 -24.140625 C 29.726562 -23.390625 28.328125 -22.726562 26.796875 -22.15625 C 25.273438 -21.59375 23.738281 -21.015625 22.1875 -20.421875 C 20.644531 -19.835938 19.238281 -19.140625 17.96875 -18.328125 C 16.695312 -17.515625 15.710938 -16.484375 15.015625 -15.234375 L 15.1875 -2.546875 L 18.984375 -0.890625 L 18.984375 0.0625 C 18.984375 0.0625 18.597656 0.0507812 17.828125 0.03125 C 17.054688 0.0078125 16.015625 0 14.703125 0 C 13.398438 0 11.957031 0 10.375 0 C 7.988281 0 5.945312 0.0078125 4.25 0.03125 C 2.5625 0.0507812 1.71875 0.0625 1.71875 0.0625 L 1.71875 -0.890625 L 5.734375 -2.546875 L 5.734375 -34.28125 C 5.734375 -34.976562 5.75 -35.710938 5.78125 -36.484375 C 5.820312 -37.265625 5.84375 -37.65625 5.84375 -37.65625 L 1.71875 -39.359375 L 1.71875 -40.1875 C 1.71875 -40.1875 2.101562 -40.1875 2.875 -40.1875 C 3.644531 -40.1875 4.65625 -40.1875 5.90625 -40.1875 C 7.15625 -40.1875 8.539062 -40.1875 10.0625 -40.1875 C 11.59375 -40.1875 13.125 -40.1875 14.65625 -40.1875 C 16.1875 -40.1875 17.578125 -40.1875 18.828125 -40.1875 C 20.921875 -40.144531 22.882812 -40.039062 24.71875 -39.875 C 26.5625 -39.71875 28.203125 -39.363281 29.640625 -38.8125 C 31.078125 -38.257812 32.242188 -37.375 33.140625 -36.15625 C 34.046875 -34.945312 34.609375 -33.289062 34.828125 -31.1875 Z M 15.015625 -34.28125 L 15.015625 -17.171875 C 15.972656 -18.347656 16.929688 -19.3125 17.890625 -20.0625 C 18.847656 -20.820312 19.765625 -21.492188 20.640625 -22.078125 C 21.523438 -22.671875 22.332031 -23.296875 23.0625 -23.953125 C 23.800781 -24.617188 24.398438 -25.4375 24.859375 -26.40625 C 25.328125 -27.382812 25.613281 -28.664062 25.71875 -30.25 C 25.875 -32.050781 25.5625 -33.648438 24.78125 -35.046875 C 24.007812 -36.453125 23.046875 -37.53125 21.890625 -38.28125 C 20.734375 -39.039062 19.601562 -39.378906 18.5 -39.296875 C 17.539062 -39.265625 16.71875 -38.832031 16.03125 -38 C 15.351562 -37.175781 15.015625 -35.9375 15.015625 -34.28125 Z M 15.015625 -34.28125 "/></g></g></g></svg>